<svg width="63" height="34" viewBox="0 0 63 34" fill="none" xmlns="http://www.w3.org/2000/svg">
<g clip-path="url(#clip0_7_24)">
<path d="M0 0C5.6196 7.49428 9.20325 9.22792 14.8922 9.21208C23.6827 9.18761 31 15.3656 31 24.1561C31 26.279 29.279 28 27.1561 28H19.4924C12.1505 28 5.75081 23.0032 3.97014 15.8806L0 0Z" fill="url(#paint0_linear_7_24)"/>
<path d="M32.366 33.5C31.9811 34.1667 31.0189 34.1667 30.634 33.5L28.4689 29.75C28.084 29.0833 28.5651 28.25 29.3349 28.25L33.6651 28.25C34.4349 28.25 34.916 29.0833 34.5311 29.75L32.366 33.5Z" fill="url(#paint1_linear_7_24)"/>
<path d="M63 0C57.3804 7.49428 53.7967 9.22792 48.1078 9.21208C39.3173 9.18761 32 15.3656 32 24.1561C32 26.279 33.721 28 35.8439 28H43.5076C50.8495 28 57.2492 23.0032 59.0299 15.8806L63 0Z" fill="url(#paint2_linear_7_24)"/>
</g>
<defs>
<linearGradient id="paint0_linear_7_24" x1="15.5" y1="0" x2="15.5" y2="28" gradientUnits="userSpaceOnUse">
<stop stop-color="#12C6D2"/>
<stop offset="1" stop-color="#3C096C"/>
</linearGradient>
<linearGradient id="paint1_linear_7_24" x1="31.5" y1="35" x2="31.5" y2="26" gradientUnits="userSpaceOnUse">
<stop stop-color="#12C6D2"/>
<stop offset="1" stop-color="#3C096C"/>
</linearGradient>
<linearGradient id="paint2_linear_7_24" x1="47.5" y1="0" x2="47.5" y2="28" gradientUnits="userSpaceOnUse">
<stop stop-color="#12C6D2"/>
<stop offset="1" stop-color="#3C096C"/>
</linearGradient>
<clipPath id="clip0_7_24">
<rect width="63" height="34" fill="white"/>
</clipPath>
</defs>
</svg>
